HIERARCHY
ROOT root
{
	OFFSET	0	13.1	24.9
	CHANNELS 6  Xposition Yposition Zposition Xrotation Yrotation Zrotation
	JOINT spine_1
	{
		OFFSET	0	9.99999	0
		CHANNELS 3  Xrotation Yrotation Zrotation
		JOINT spine_2
		{
			OFFSET	0	112	-10
			CHANNELS 3  Xrotation Yrotation Zrotation
			JOINT spine_3
			{
				OFFSET	0	206.5	19.3
				CHANNELS 3  Xrotation Yrotation Zrotation
				JOINT spine_4
				{
					OFFSET	0	110.4	14.6
					CHANNELS 3  Xrotation Yrotation Zrotation
					JOINT neck_1
					{
						OFFSET	0	71.8	-50.3
						CHANNELS 3  Xrotation Yrotation Zrotation
						JOINT neck_2
						{
							OFFSET	0	86.2	-25.8
							CHANNELS 3  Xrotation Yrotation Zrotation
							JOINT head_ee
							{
								OFFSET	0	179.8	-8.7
								CHANNELS 3  Xrotation Yrotation Zrotation
								End Site
								{
									OFFSET	1	0	0
								}
							}
						}
					}
					JOINT left_clavicle
					{
						OFFSET	-43.2	22.4	-70.8
						CHANNELS 3  Xrotation Yrotation Zrotation
						JOINT left_shoulder
						{
							OFFSET	-93.9	-5.79999	48.7
							CHANNELS 3  Xrotation Yrotation Zrotation
							JOINT left_elbow
							{
								OFFSET	-291.4	-30.8	15.2
								CHANNELS 3  Xrotation Yrotation Zrotation
								JOINT left_lowarm_twist
								{
									OFFSET	-110.7	-3.89999	13.6
									CHANNELS 3  Xrotation Yrotation Zrotation
									JOINT left_hand
									{
										OFFSET	-110.7	-3.89999	13.6
										CHANNELS 3  Xrotation Yrotation Zrotation
										JOINT left_ee
										{
											OFFSET	-80.8	-5.10001	12.1
											CHANNELS 3  Xrotation Yrotation Zrotation
											End Site
											{
												OFFSET	1	0	0
											}
										}
									}
								}
							}
						}
					}
					JOINT right_clavicle
					{
						OFFSET	43.2	22.4	-70.8
						CHANNELS 3  Xrotation Yrotation Zrotation
						JOINT right_shoulder
						{
							OFFSET	93.9	-5.79999	48.7
							CHANNELS 3  Xrotation Yrotation Zrotation
							JOINT right_elbow
							{
								OFFSET	291.4	-30.8	15.2
								CHANNELS 3  Xrotation Yrotation Zrotation
								JOINT right_lowarm_twist
								{
									OFFSET	110.7	-3.89999	13.6
									CHANNELS 3  Xrotation Yrotation Zrotation
									JOINT right_hand
									{
										OFFSET	110.7	-3.89999	13.6
										CHANNELS 3  Xrotation Yrotation Zrotation
										JOINT right_ee
										{
											OFFSET	80.8	-5.10001	12.1
											CHANNELS 3  Xrotation Yrotation Zrotation
											End Site
											{
												OFFSET	1	0	0
											}
										}
									}
								}
							}
						}
					}
				}
			}
		}
	}
	JOINT left_hip
	{
		OFFSET	-82.8	-127.5	0.300001
		CHANNELS 3  Xrotation Yrotation Zrotation
		JOINT left_knee
		{
			OFFSET	-28.2	-396.7	2.2
			CHANNELS 3  Xrotation Yrotation Zrotation
			JOINT left_ankle
			{
				OFFSET	-11.7	-411.3	35.4
				CHANNELS 3  Xrotation Yrotation Zrotation
				JOINT left_toes
				{
					OFFSET	0	-60	-88.6
					CHANNELS 3  Xrotation Yrotation Zrotation
					JOINT left_foot_ee
					{
						OFFSET	-22.5	-16.5	-42.2
						CHANNELS 3  Xrotation Yrotation Zrotation
						End Site
						{
							OFFSET	1	0	0
						}
					}
				}
			}
		}
	}
	JOINT right_hip
	{
		OFFSET	82.8	-127.5	0.300001
		CHANNELS 3  Xrotation Yrotation Zrotation
		JOINT right_knee
		{
			OFFSET	28.2	-396.7	2.2
			CHANNELS 3  Xrotation Yrotation Zrotation
			JOINT right_ankle
			{
				OFFSET	11.7	-411.3	35.4
				CHANNELS 3  Xrotation Yrotation Zrotation
				JOINT right_toes
				{
					OFFSET	0	-60	-88.6
					CHANNELS 3  Xrotation Yrotation Zrotation
					JOINT right_foot_ee
					{
						OFFSET	22.5	-16.5	-42.2
						CHANNELS 3  Xrotation Yrotation Zrotation
						End Site
						{
							OFFSET	1	0	0
						}
					}
				}
			}
		}
	}
}
MOTION
Frames: 9
Frame Time: 0.02
1208.91 689.161 -1459.21 8.96569 66.7496 -0.299595 -0.386557 -0.300655 -1.55528 -0.385233 -0.201091 -1.57125 -0.378818 0.144084 -1.5775 -0.382275 -0.106829 -1.58046 2.66199 3.57428 -1.59183 2.73562 7.59666 -1.50397 -0.0 0.0 -0.0 9.23676 6.09114 17.7607 -30.432 -12.5368 54.9967 0.956178 -25.3447 0.215004 1.84455 0.0613289 -0.227597 2.54152 -0.914691 16.8784 -0.0 0.0 -0.0 10.9732 -2.19937 -21.5234 -11.5714 17.4779 -54.0624 1.02221 26.8558 -0.244058 63.5619 2.10109 7.42651 1.02927 -1.26687 -7.40415 0.0 0.0 0.0 26.9808 -26.9077 -11.1099 -8.9821 0.264313 1.35173 6.27757 28.8093 -0.96542 25.2995 -0.0 -0.0 -0.0 0.0 -0.0 -26.7918 28.1115 -9.42992 -2.07545 -0.0798742 -0.308479 39.1072 9.09518 4.92844 37.7094 -0.0 -0.0 0.0 0.0 0.0 
1174.66 691.919 -1460.9 8.25932 67.1793 -0.0456904 -0.324294 -0.479861 -1.65691 -0.322844 -0.37347 -1.68407 -0.310744 -0.00187841 -1.72498 -0.314792 -0.274243 -1.70304 2.90105 4.52892 -2.05812 3.02356 9.65088 -1.97431 -0.0 0.0 -0.0 9.47729 6.06334 18.2278 -29.5134 -12.491 55.4205 1.02983 -27.0278 0.247512 2.75276 0.0888236 -0.340347 2.218 -0.797094 14.6721 -0.0 0.0 -0.0 10.8298 -3.6908 -21.1056 -14.2453 16.1482 -53.8264 0.950358 25.2097 -0.212519 63.5919 2.10394 7.42911 1.31736 -2.38416 -9.78783 0.0 0.0 0.0 24.85 -26.3187 -11.28 -9.65254 0.27549 1.454 4.92967 28.2784 -0.75821 26.1552 -0.0 -0.0 -0.0 0.0 -0.0 -26.6262 28.7941 -8.99278 -4.13109 -0.147909 -0.616607 39.5346 7.83208 4.94008 38.5304 -0.0 -0.0 0.0 0.0 0.0 
1150.9 695.352 -1463.18 7.49768 67.5399 1.49033 -0.0818571 -0.415222 -1.75699 -0.0801903 -0.302597 -1.77984 -0.0697249 0.0804125 -1.80358 -0.0742062 -0.205392 -1.79365 2.85747 5.52686 -2.03785 3.01889 11.3767 -1.88135 -0.0 0.0 -0.0 9.59229 6.02617 18.4538 -28.9159 -12.5189 55.6695 1.08281 -28.208 0.272072 3.0368 0.0970549 -0.375694 1.9537 -1.46933 12.577 -0.0 0.0 -0.0 10.7551 -4.22915 -20.9069 -15.3499 15.3228 -53.6116 0.778265 21.0831 -0.144829 65.9321 2.32955 7.62705 1.20509 -3.08607 -9.31046 0.0 0.0 0.0 23.6638 -25.9094 -9.48187 -8.89409 0.262756 1.33831 5.01743 27.8551 -0.769475 27.3365 -0.0 -0.0 -0.0 0.0 -0.0 -23.1868 29.3424 -11.9349 -11.1638 -0.296289 -1.68494 39.8198 8.09946 4.97017 40.2162 -0.0 -0.0 0.0 0.0 0.0 
1125.76 700.349 -1469.56 9.77101 67.5102 -0.197985 -0.123939 -0.520786 -2.09629 -0.121577 -0.386369 -2.12516 -0.105678 0.0728434 -2.15876 -0.11208 -0.268926 -2.14319 2.47173 5.954 -0.590542 2.59237 10.9215 -0.206173 -0.0 0.0 -0.0 9.66921 5.36493 18.6544 -27.6809 -11.8868 55.702 1.14639 -29.5907 0.302799 4.66561 0.140862 -0.57914 1.65741 -0.897995 10.7803 -0.0 0.0 -0.0 10.6875 -4.73181 -20.7253 -17.1 14.5579 -53.496 0.649343 17.8313 -0.101867 67.5707 2.49226 7.76012 0.99944 -3.28044 -8.01059 0.0 0.0 0.0 21.6842 -25.3481 -9.79575 -9.17405 0.267635 1.38099 10.4615 28.3138 -1.58437 28.1028 -0.0 -0.0 -0.0 0.0 -0.0 -19.3575 29.2414 -15.0285 -15.9773 -0.321849 -2.42283 38.3976 9.12832 4.86575 40.0865 -0.0 -0.0 0.0 0.0 0.0 
1107.24 697.335 -1477.2 10.0524 67.3792 0.959527 -0.115762 -0.734546 -2.57449 -0.112255 -0.569294 -2.61597 -0.0838021 -0.00306014 -2.67716 -0.0935508 -0.425679 -2.64313 2.04082 6.22527 0.415414 2.13989 10.5835 0.958931 -0.0 0.0 -0.0 9.84518 1.92581 19.2351 -24.5081 -11.3599 55.242 1.13633 -29.3745 0.297851 7.73408 0.207601 -0.965383 1.21647 1.26196 8.66112 -0.0 0.0 -0.0 10.6172 -5.11476 -20.5495 -18.3683 13.9989 -53.5142 0.554878 15.3695 -0.0748727 68.3517 2.57115 7.82191 0.677624 -3.47457 -5.94438 0.0 0.0 0.0 19.373 -24.2349 -12.0689 -9.83616 0.278342 1.48203 17.869 28.3215 -2.6381 29.4526 -0.0 -0.0 -0.0 0.0 -0.0 -16.6531 29.0086 -16.0587 -18.219 -0.312584 -2.76663 37.3282 10.0879 4.78913 39.9821 -0.0 -0.0 0.0 0.0 0.0 
1089.29 705.803 -1482.81 11.7681 67.8669 0.0353602 -0.316222 -0.77749 -2.92213 -0.311665 -0.590056 -2.96563 -0.277751 0.0608603 -3.02309 -0.290262 -0.417127 -2.99482 1.02026 6.37554 1.21466 1.10094 10.2742 1.91308 -0.0 0.0 -0.0 9.85349 -0.0239573 19.3539 -23.55 -11.3755 55.562 1.15031 -29.6748 0.304737 9.28759 0.233477 -1.16213 0.934713 2.24548 7.1642 -0.0 0.0 -0.0 10.6011 -5.3567 -20.4948 -19.0405 13.5746 -53.7203 0.500227 13.9176 -0.0610556 69.6225 2.70129 7.92014 0.155613 -4.47565 -2.89865 0.0 0.0 0.0 17.9391 -22.7428 -14.7604 -9.10706 0.266487 1.37078 23.0237 28.0419 -3.3222 29.231 -0.0 -0.0 -0.0 0.0 -0.0 -15.7452 29.027 -16.174 -22.056 -0.265549 -3.35339 38.9815 11.6213 4.97706 40.1177 -0.0 -0.0 0.0 0.0 0.0 
1072.17 713.83 -1493.54 12.8082 67.2564 0.431692 -0.475224 -0.741966 -3.26503 -0.469452 -0.532817 -3.30556 -0.434432 0.1991 -3.34226 -0.449866 -0.330947 -3.3318 0.112988 6.45412 1.79409 0.182701 10.026 2.60207 -0.0 0.0 -0.0 9.91221 -2.58201 19.5758 -21.7964 -11.6906 54.9455 1.20309 -30.7928 0.331316 11.3629 0.259701 -1.4259 0.675225 3.92431 6.10934 -0.0 0.0 -0.0 10.1579 -5.44255 -19.6088 -19.9633 13.526 -54.1967 0.457338 12.7652 -0.0511582 70.3185 2.77348 7.97271 -0.318201 -6.19776 -0.50786 0.0 0.0 0.0 15.6293 -20.7904 -15.785 -9.89323 0.27921 1.49074 26.7569 27.7951 -3.78955 29.3795 -0.0 -0.0 -0.0 0.0 -0.0 -10.2868 27.8026 -18.88 -26.7799 -0.153872 -4.06952 38.158 13.455 4.95266 39.6775 -0.0 -0.0 0.0 0.0 0.0 
1061.94 717.621 -1490.92 12.3641 66.0729 0.845147 -0.536487 -0.677114 -3.25608 -0.530711 -0.468664 -3.29252 -0.499523 0.262752 -3.31528 -0.514762 -0.263837 -3.3152 -0.661786 6.37549 2.27134 -0.601342 9.57711 3.14831 -0.0 0.0 -0.0 9.97109 -4.30294 19.7461 -21.4905 -11.7607 55.3175 1.24056 -31.5709 0.350715 12.835 0.272504 -1.6135 0.589994 5.19249 6.05361 -0.0 0.0 -0.0 9.88953 -5.45506 -19.0794 -20.4709 14.1499 -54.686 0.43471 12.1529 -0.0462765 70.3536 2.77714 7.97534 -0.679374 -7.80852 1.15493 0.0 0.0 0.0 14.7999 -19.6492 -16.5051 -9.58713 0.274452 1.44401 28.188 27.3809 -3.95367 29.4725 -0.0 -0.0 -0.0 0.0 -0.0 -6.62148 26.4463 -22.4175 -30.5326 -0.0232999 -4.63053 37.4935 16.0218 4.97086 39.1824 -0.0 -0.0 0.0 0.0 0.0 
1051.32 720.833 -1490.83 10.2698 65.2834 3.88956 -0.371682 -0.691048 -3.44499 -0.365204 -0.47057 -3.48192 -0.332195 0.292126 -3.50138 -0.349203 -0.264169 -3.5036 -1.2346 5.91789 2.84589 -1.1846 8.35226 3.73364 -0.0 0.0 -0.0 10.0717 -7.33947 20.0015 -19.9936 -12.0652 54.2631 1.28486 -32.4746 0.374209 14.6238 0.281568 -1.84178 0.469649 6.76232 5.88924 -0.0 0.0 -0.0 9.59377 -5.42312 -18.5025 -21.0956 14.485 -54.7991 0.400667 11.2263 -0.0393787 70.0546 2.74603 7.95288 -0.960896 -9.03139 2.44083 0.0 0.0 0.0 12.6489 -18.1429 -18.065 -9.3758 0.271021 1.41177 31.0716 26.5527 -4.27118 30.0177 -0.0 -0.0 -0.0 0.0 -0.0 -3.70324 25.92 -23.0409 -32.561 0.0625177 -4.92996 37.0629 17.7804 4.99165 39.1573 -0.0 -0.0 0.0 0.0 0.0 
